<svg width="28.500000" height="26.707153" viewBox="0 0 28.5 26.7072" fill="none" xmlns="http://www.w3.org/2000/svg" xmlns:xlink="http://www.w3.org/1999/xlink">
	<desc>
			Created with Pixso.
	</desc>
	<defs>
		<linearGradient x1="3.500001" y1="9.234831" x2="28.480541" y2="22.689060" id="paint_linear_773_1656_0" gradientUnits="userSpaceOnUse">
			<stop stop-color="#89BD2D"/>
			<stop offset="1.000000" stop-color="#338054"/>
		</linearGradient>
	</defs>
	<path id="Vector 9" d="M18.5 10L18.5 6.8L12.83 1.2L2.5 1.2C1.39 1.2 0.5 2.1 0.5 3.2L0.5 24.2C0.5 25.31 1.39 26.2 2.5 26.2L16.5 26.2C17.6 26.2 18.5 25.31 18.5 24.2L18.5 19.54" stroke="#FFFFFF" stroke-opacity="1.000000" stroke-width="1.000000"/>
	<rect id="Rectangle 223" x="3.500000" y="9.207153" rx="2.000000" width="25.000000" height="14.000000" fill="url(#paint_linear_773_1656_0)" fill-opacity="1.000000"/>
	<rect id="Rectangle 223" x="3.500000" y="9.207153" rx="2.000000" width="25.000000" height="14.000000" fill="#006E79" fill-opacity="1.000000"/>
	<path id="File" d="M14.77 15.2Q14.95 15.13 15.09 14.98C15.29 14.79 15.38 14.56 15.38 14.3C15.38 14.04 15.29 13.82 15.09 13.63Q14.95 13.48 14.77 13.42Q14.61 13.35 14.42 13.35Q14.25 13.35 14.1 13.41Q13.91 13.48 13.74 13.63C13.56 13.82 13.46 14.04 13.46 14.3Q13.46 14.47 13.52 14.63Q13.59 14.82 13.74 14.98Q13.91 15.14 14.1 15.21Q14.25 15.26 14.42 15.26Q14.61 15.26 14.77 15.2ZM16.21 13.37L16.21 20.67L17.87 20.67L17.87 13.37L16.21 13.37ZM10.28 15.4L12.79 15.4L12.79 13.67L8.49 13.67L8.49 20.67L10.28 20.67L10.28 18.27L12.74 18.27L12.74 16.54L10.28 16.54L10.28 15.4ZM20.49 19.08Q20.37 18.96 20.3 18.78L23.75 18.78C23.8 18.59 23.82 18.38 23.82 18.16C23.82 17.41 23.58 16.78 23.09 16.28C22.6 15.78 21.99 15.53 21.24 15.53Q20.5 15.53 19.93 15.84Q19.6 16.02 19.33 16.29Q19.03 16.6 18.85 16.96Q18.58 17.51 18.58 18.18Q18.58 18.88 18.86 19.43Q19.04 19.78 19.34 20.07Q19.5 20.22 19.67 20.34Q20.37 20.81 21.38 20.81Q22.39 20.81 23.06 20.33Q23.32 20.14 23.53 19.88L22.33 19.04Q22.18 19.18 22.01 19.26Q21.75 19.39 21.42 19.39Q20.8 19.39 20.49 19.08ZM13.59 15.67L13.59 20.67L15.25 20.67L15.25 15.67L13.59 15.67ZM22.2 17.63L20.28 17.63C20.42 17.17 20.75 16.93 21.26 16.93Q21.64 16.93 21.87 17.12Q22.1 17.29 22.2 17.63Z" fill="#FFFFFF" fill-opacity="1.000000" fill-rule="evenodd"/>
	<path id="Vector 10" d="M12.5 5.2C12.5 6.31 13.39 7.2 14.5 7.2L18.5 7.2L12.5 1.2L12.5 5.2Z" stroke="#FFFFFF" stroke-opacity="1.000000" stroke-width="1.000000"/>
</svg>
