<svg width="46.891846" height="63.397827" viewBox="0 0 46.8918 63.3978" fill="none" xmlns="http://www.w3.org/2000/svg" xmlns:xlink="http://www.w3.org/1999/xlink">
	<defs/>
	<path id="Vector" d="M8 4.23C3.95 6.6 0.52 8.64 0.37 8.77C0.11 9.02 0.1 9.17 0.1 14.39C0.1 17.35 0.14 19.85 0.18 19.96C0.22 20.08 1.57 20.93 3.19 21.86L6.11 23.54L6.11 25.11C6.11 26.85 6.26 27.3 6.86 27.3C7.53 27.3 7.62 27.04 7.62 24.85C7.62 23.1 7.59 22.8 7.38 22.62C7.25 22.5 5.91 21.69 4.4 20.83L1.67 19.25L1.63 14.94C1.61 12.56 1.64 10.62 1.7 10.63C1.77 10.63 5.5 12.78 10.01 15.39L18.21 20.14L18.28 26.11C18.32 29.81 18.4 32.13 18.49 32.21C18.57 32.28 19.91 33.08 21.48 33.98L24.34 35.63L24.31 38.5L24.28 41.38L24.67 41.72C24.87 41.91 25.38 42.35 25.77 42.71C27 43.79 27.91 46.06 27.58 47.27C27.35 48.11 26.69 48.3 25.76 47.81C25.49 47.66 25.14 47.53 24.99 47.53C24.45 47.53 24.36 47.88 24.3 50.47L24.23 52.96L21.64 51.47C19.1 50.02 18.68 49.86 18.4 50.3C18.29 50.47 18.14 55.19 18.14 58.57C18.14 60.08 18.12 61.34 18.09 61.34C18.01 61.34 1.68 51.91 1.56 51.79C1.51 51.73 1.48 49.76 1.49 47.42L1.53 43.16L4.02 44.59C5.4 45.39 6.67 46.03 6.85 46.03C7.62 46.03 7.62 46 7.62 41.04C7.62 36.09 7.62 36.05 6.86 36.05C6.35 36.05 6.11 36.4 6.11 37.18L6.11 37.89L3.13 39.62L0.17 41.33L0.06 46.59C-0.01 49.47 -0.03 52.03 0.03 52.28C0.1 52.66 0.29 52.81 1.64 53.6C14.33 60.95 18.65 63.39 18.92 63.39C19.22 63.39 33.87 54.98 34.28 54.56C34.43 54.41 34.5 53.88 34.55 52.33L34.62 50.3L36.71 51.99C37.98 53.02 38.93 53.69 39.12 53.69C39.42 53.69 45.88 49.83 46.06 49.53C46.12 49.45 46.35 48.61 46.57 47.67C46.94 46.15 46.95 45.93 46.79 45.66C46.68 45.51 45.49 44.47 44.12 43.38C42.77 42.27 41.66 41.35 41.66 41.33C41.66 41.3 42.02 41.07 42.45 40.79C43.38 40.22 43.81 39.56 43.93 38.5C44.13 36.73 43.27 34.61 41.71 33.07L40.7 32.08L40.7 29.21C40.7 26.64 40.68 26.31 40.46 26.1C40.33 25.97 38.94 25.14 37.38 24.24L34.55 22.62L34.55 16.72C34.55 13.48 34.5 10.76 34.44 10.67C34.24 10.36 16.15 0.04 15.75 0C15.42 -0.04 13.85 0.82 8 4.23ZM32.25 11.18C32.12 11.3 19.42 18.67 19.17 18.77C18.99 18.84 2.42 9.42 2.43 9.25C2.43 9.21 5.42 7.46 9.07 5.34L15.71 1.5L24.02 6.3C28.6 8.94 32.31 11.14 32.25 11.18ZM33.18 17.48L33.18 22.58L26.61 26.41C22.98 28.52 19.96 30.27 19.91 30.28C19.84 30.31 19.8 28.12 19.81 25.23L19.85 20.15L26.48 16.28C30.13 14.15 33.13 12.41 33.16 12.41C33.17 12.4 33.18 14.69 33.18 17.48ZM36.19 25.28C37.39 25.97 38.32 26.59 38.27 26.64C38.1 26.81 25.21 34.27 25.09 34.27C24.93 34.27 20.6 31.77 20.6 31.67C20.62 31.56 33.65 24.02 33.84 24.02C33.93 24.02 35 24.58 36.19 25.28ZM39.2 30.14L39.2 32.44L32.58 36.3C28.94 38.41 25.94 40.15 25.88 40.15C25.83 40.15 25.81 39.13 25.83 37.88L25.87 35.63L32.5 31.74C36.15 29.61 39.14 27.87 39.17 27.86C39.18 27.85 39.2 28.89 39.2 30.14ZM40.99 34.44C42.18 35.93 42.79 38.02 42.32 38.91C42.17 39.18 40.69 40.25 40.42 40.27C40.36 40.29 39.95 39.99 39.49 39.6C39.01 39.23 38.52 38.89 38.36 38.85C38.17 38.78 37.19 39.32 34.82 40.78C33.02 41.87 31.47 42.87 31.38 42.99C31.28 43.1 31.05 43.84 30.86 44.62L30.52 46.04L29.81 46.45L29.08 46.85L29.08 46.33C29.08 45.15 28.22 43.14 27.28 42.12C26.96 41.79 26.76 41.48 26.8 41.44C27.06 41.18 39.99 33.74 40.18 33.72C40.32 33.72 40.68 34.05 40.99 34.44ZM6.06 43.94C6.03 43.98 5.17 43.51 4.16 42.93C3.13 42.34 2.33 41.85 2.35 41.82C2.38 41.79 3.21 41.3 4.23 40.71L6.04 39.66L6.09 41.76C6.1 42.93 6.1 43.91 6.06 43.94ZM42.44 47.47L39.96 48.98L37.76 47.22C36.56 46.23 35.04 45 34.39 44.48L33.2 43.53L35.67 42L38.16 40.48L41.54 43.21L44.91 45.95L42.44 47.47ZM35.78 47.53C37.39 48.83 38.8 49.97 38.9 50.06C39.05 50.19 39.05 50.35 38.91 50.9C38.82 51.27 38.73 51.59 38.71 51.61C38.68 51.65 32.79 46.95 32.06 46.32C32.01 46.26 32.02 45.99 32.1 45.69C32.35 44.73 32.34 44.74 32.61 44.96C32.73 45.07 34.17 46.23 35.78 47.53ZM32.43 48.55C32.66 48.72 32.81 48.9 32.77 48.93C32.73 48.97 31.45 49.72 29.9 50.61C28.36 51.5 26.81 52.4 26.46 52.62L25.8 52.99L25.8 51.25L25.8 49.52L26.66 49.52C27.47 49.52 27.59 49.47 29.29 48.48L31.06 47.44L31.54 47.82C31.8 48.03 32.21 48.35 32.43 48.55ZM44.93 48.11C44.86 48.34 44.76 48.59 44.69 48.65C44.52 48.83 40.37 51.36 40.33 51.32C40.32 51.29 40.36 51.06 40.44 50.8C40.55 50.39 40.81 50.19 42.73 49.01C43.9 48.29 44.91 47.68 44.97 47.68C45.02 47.67 45 47.86 44.93 48.11ZM33.05 52.09L33.05 53.63L26.42 57.49C22.77 59.61 19.76 61.34 19.72 61.34C19.68 61.34 19.65 59.25 19.65 56.69L19.65 52.06L22.26 53.56C24.13 54.64 24.95 55.05 25.17 55C25.32 54.96 27.15 53.95 29.22 52.73C31.28 51.53 32.99 50.54 33.02 50.54C33.03 50.54 33.05 51.24 33.05 52.09Z" fill="#272F6A" fill-opacity="1.000000" fill-rule="nonzero"/>
	<path id="Vector" d="M16.3 7.06C14.59 7.3 13 8.2 12.59 9.21C11.88 10.89 13.07 12.53 15.48 13.16C16.53 13.45 18.5 13.41 19.55 13.08C23.26 11.93 23.31 8.47 19.65 7.35C18.57 7.02 17.39 6.93 16.3 7.06ZM18.58 8.58C19.91 8.87 20.88 9.55 20.88 10.22C20.88 10.7 20.11 11.36 19.17 11.67C17.69 12.16 15.4 11.86 14.44 11.06C13.88 10.59 13.76 10.24 13.99 9.77C14.51 8.77 16.72 8.2 18.58 8.58Z" fill="#272F6A" fill-opacity="1.000000" fill-rule="nonzero"/>
	<path id="Vector" d="M26.21 17.65C25.31 18.13 24.23 19.34 23.67 20.52C23.27 21.34 23.16 21.76 23.11 22.61C23.05 23.54 23.08 23.76 23.37 24.29C24.53 26.55 27.63 25.55 29.16 22.43C30.11 20.52 29.93 18.3 28.78 17.59C28.14 17.21 27.02 17.24 26.21 17.65ZM28.03 18.93C28.99 19.98 27.55 23.21 25.8 23.92C25.2 24.17 24.75 24.02 24.62 23.54C24.27 22.1 25.49 19.68 26.92 18.97C27.63 18.62 27.74 18.62 28.03 18.93Z" fill="#272F6A" fill-opacity="1.000000" fill-rule="nonzero"/>
	<path id="Vector" d="M6.25 29.47C6.18 29.62 6.11 30.62 6.11 31.73C6.11 33.55 6.14 33.75 6.39 34C6.71 34.33 6.91 34.34 7.32 34.05C7.6 33.85 7.62 33.77 7.62 31.69C7.62 30.2 7.56 29.49 7.45 29.38C7.18 29.1 6.41 29.17 6.25 29.47Z" fill="#272F6A" fill-opacity="1.000000" fill-rule="nonzero"/>
</svg>
