<svg width="48.691650" height="63.423950" viewBox="0 0 48.6917 63.424" fill="none" xmlns="http://www.w3.org/2000/svg" xmlns:xlink="http://www.w3.org/1999/xlink">
	<defs/>
	<path id="Vector" d="M12.72 7.24C5.85 11.22 0.17 14.54 0.11 14.64C-0.06 14.91 -0.03 33.98 0.13 34.31C0.3 34.61 1.14 34.68 1.32 34.39C1.38 34.31 1.46 30.21 1.5 25.3L1.57 16.39L11.89 22.39L22.21 28.39L22.25 44.88C22.27 53.94 22.25 61.37 22.23 61.37C22.2 61.37 17.54 58.67 11.88 55.38L1.57 49.39L1.54 44.76C1.5 40.22 1.5 40.11 1.21 39.86C0.83 39.56 0.61 39.56 0.27 39.9C0.01 40.16 0 40.35 0 45.07C0 48.78 0.04 50.02 0.17 50.2C0.45 50.55 22.69 63.42 23.05 63.42C23.37 63.42 48.2 49.17 48.5 48.82C48.75 48.5 48.75 13.54 48.49 13.2C48.41 13.08 43.29 10.06 37.14 6.48C29.55 2.07 25.84 -0.02 25.59 0C25.37 0 20.19 2.92 12.72 7.24ZM36.14 7.62C41.75 10.89 46.3 13.61 46.25 13.67C46.18 13.72 40.94 16.76 34.61 20.42C27.3 24.63 22.99 27.04 22.86 26.98C22.47 26.85 2.32 15.1 2.32 15.02C2.33 14.86 25.64 1.53 25.78 1.61C25.86 1.65 30.53 4.36 36.14 7.62ZM47.07 47.98C46.92 48.11 23.94 61.37 23.85 61.37C23.81 61.37 23.79 53.94 23.79 44.85L23.8 28.35L35.45 21.64L47.1 14.92L47.14 31.41C47.15 40.46 47.12 47.93 47.07 47.98Z" fill="#272F6A" fill-opacity="1.000000" fill-rule="nonzero"/>
	<path id="Vector" d="M15.58 8.99C6.26 14.38 5.94 14.57 5.9 14.99C5.86 15.35 5.93 15.47 6.38 15.76C6.67 15.94 10.47 18.16 14.82 20.69C20.79 24.17 22.83 25.29 23.09 25.25C23.48 25.19 42.15 14.46 42.58 14.05C42.79 13.84 42.82 13.72 42.71 13.42C42.6 13.11 41.19 12.23 34.31 8.23C28.43 4.81 25.92 3.41 25.63 3.41C25.34 3.41 22.43 5.03 15.58 8.99ZM33.53 9.52C37.36 11.74 40.44 13.6 40.37 13.65C40.18 13.84 23.33 23.54 23.1 23.59C22.9 23.65 8.29 15.27 8.24 15.05C8.23 14.99 12.12 12.7 16.92 9.93L25.63 4.92L26.11 5.2C26.37 5.35 29.72 7.3 33.53 9.52Z" fill="#272F6A" fill-opacity="1.000000" fill-rule="nonzero"/>
	<path id="Vector" d="M35.34 23.03C29.92 26.15 25.36 28.8 25.19 28.91L24.88 29.1L24.88 43.84C24.88 55.12 24.92 58.62 25.04 58.74C25.14 58.84 25.37 58.91 25.56 58.91C25.9 58.91 45.76 47.55 45.96 47.23C46.02 47.15 46.07 40.49 46.07 32.42L46.07 17.77L45.77 17.56C45.61 17.44 45.4 17.34 45.32 17.34C45.24 17.34 40.75 19.9 35.34 23.03ZM44.57 32.9L44.57 46.41L35.52 51.63C30.54 54.5 26.46 56.84 26.44 56.82C26.42 56.8 26.37 50.76 26.31 43.39L26.22 29.99L35.37 24.71C40.38 21.8 44.51 19.42 44.54 19.41C44.55 19.4 44.57 25.48 44.57 32.9Z" fill="#272F6A" fill-opacity="1.000000" fill-rule="nonzero"/>
	<path id="Vector" d="M35.26 25.93C31.52 28.09 28.31 29.98 28.12 30.1L27.75 30.33L27.75 33.31C27.75 36.49 27.78 36.62 28.42 36.62C28.73 36.62 42.58 28.75 43.01 28.32C43.16 28.16 43.2 27.56 43.2 25.33C43.2 23.65 43.14 22.42 43.06 22.25C42.73 21.65 42.28 21.87 35.26 25.93ZM41.7 25.74L41.7 27.43L37.91 29.62C35.82 30.83 32.99 32.45 31.62 33.24L29.12 34.69L29.12 32.96L29.12 31.22L35.31 27.64C38.7 25.67 41.53 24.06 41.6 24.06C41.65 24.04 41.7 24.81 41.7 25.74Z" fill="#272F6A" fill-opacity="1.000000" fill-rule="nonzero"/>
	<path id="Vector" d="M40.94 30.72C39.63 31.47 39.58 31.51 39.54 32.01C39.49 32.45 39.54 32.53 39.84 32.66C40.03 32.73 40.3 32.74 40.42 32.7C40.85 32.53 42.99 31.25 43.09 31.1C43.39 30.67 43.04 29.92 42.54 29.92C42.41 29.92 41.7 30.28 40.94 30.72Z" fill="#272F6A" fill-opacity="1.000000" fill-rule="nonzero"/>
	<path id="Vector" d="M36.91 33.04C35.86 33.67 35.6 33.89 35.57 34.17C35.52 34.6 35.84 34.98 36.25 34.98C36.65 34.98 38.95 33.63 39.19 33.25C39.38 32.96 39.38 32.9 39.18 32.59C38.84 32.07 38.36 32.16 36.91 33.04Z" fill="#272F6A" fill-opacity="1.000000" fill-rule="nonzero"/>
	<path id="Vector" d="M40.9 33.63C39.55 34.42 39.49 34.46 39.54 34.89C39.56 35.19 39.69 35.38 39.93 35.51C40.27 35.71 40.36 35.68 41.64 34.93C43.09 34.08 43.2 33.98 43.2 33.52C43.2 33.23 42.75 32.79 42.45 32.79C42.38 32.79 41.68 33.16 40.9 33.63Z" fill="#272F6A" fill-opacity="1.000000" fill-rule="nonzero"/>
	<path id="Vector" d="M33.22 35.17C31.76 36.01 31.51 36.28 31.7 36.79C31.92 37.37 32.36 37.36 33.49 36.73C34.86 35.99 35.41 35.57 35.41 35.24C35.41 34.94 34.96 34.43 34.68 34.43C34.59 34.43 33.93 34.76 33.22 35.17Z" fill="#272F6A" fill-opacity="1.000000" fill-rule="nonzero"/>
	<path id="Vector" d="M36.99 35.87C36.34 36.27 35.73 36.68 35.67 36.77C35.37 37.24 35.71 37.85 36.27 37.85C36.42 37.85 37.14 37.51 37.88 37.1C39.29 36.28 39.52 35.99 39.15 35.43C38.85 34.95 38.35 35.05 36.99 35.87Z" fill="#272F6A" fill-opacity="1.000000" fill-rule="nonzero"/>
	<path id="Vector" d="M42.04 35.88C41.82 35.99 41.15 36.38 40.56 36.72C39.52 37.33 39.49 37.35 39.54 37.84C39.56 38.22 39.64 38.36 39.95 38.45C40.26 38.56 40.51 38.47 41.72 37.77C42.99 37.03 43.13 36.91 43.17 36.53C43.2 36.21 43.13 36.05 42.9 35.88C42.53 35.62 42.54 35.62 42.04 35.88Z" fill="#272F6A" fill-opacity="1.000000" fill-rule="nonzero"/>
	<path id="Vector" d="M29.31 37.41C27.87 38.25 27.75 38.36 27.75 38.8C27.75 39.68 28.35 39.7 29.84 38.85C31.26 38.04 31.44 37.89 31.44 37.44C31.44 36.57 30.79 36.55 29.31 37.41Z" fill="#272F6A" fill-opacity="1.000000" fill-rule="nonzero"/>
	<path id="Vector" d="M33.15 38.1C31.78 38.89 31.78 38.89 31.78 39.42C31.78 39.89 31.84 39.99 32.14 40.09C32.44 40.2 32.7 40.09 33.85 39.42C35.31 38.56 35.41 38.48 35.41 38.03C35.41 37.74 34.96 37.31 34.65 37.31C34.59 37.31 33.9 37.66 33.15 38.1Z" fill="#272F6A" fill-opacity="1.000000" fill-rule="nonzero"/>
	<path id="Vector" d="M37.01 38.75C35.61 39.56 35.37 39.88 35.68 40.44C35.78 40.63 35.97 40.72 36.21 40.72C36.73 40.72 39.08 39.38 39.28 38.99C39.45 38.59 39.08 37.99 38.65 37.99C38.48 37.99 37.74 38.33 37.01 38.75Z" fill="#272F6A" fill-opacity="1.000000" fill-rule="nonzero"/>
	<path id="Vector" d="M29.6 40.14C27.87 41.15 27.75 41.26 27.75 41.65C27.75 42.56 28.38 42.58 29.86 41.74C31.25 40.93 31.44 40.76 31.44 40.31C31.44 39.49 30.8 39.42 29.6 40.14Z" fill="#272F6A" fill-opacity="1.000000" fill-rule="nonzero"/>
	<path id="Vector" d="M33.01 41.07C31.81 41.78 31.78 41.79 31.78 42.31C31.78 42.75 31.84 42.86 32.14 42.97C32.44 43.06 32.7 42.97 33.89 42.3C35.34 41.48 35.58 41.17 35.27 40.6C35.02 40.12 34.38 40.26 33.01 41.07Z" fill="#272F6A" fill-opacity="1.000000" fill-rule="nonzero"/>
	<path id="Vector" d="M36.66 41.8C34.79 42.45 33.01 44.99 32.85 47.29C32.67 49.54 33.93 50.88 35.8 50.43C37.22 50.09 38.47 48.93 39.38 47.08C40.29 45.26 40.29 43.29 39.38 42.31C38.67 41.53 37.88 41.38 36.66 41.8ZM35.8 45.8C35.04 47.18 34.38 48.34 34.34 48.38C34.31 48.42 34.3 48.01 34.34 47.49C34.39 46.34 34.85 45.33 35.71 44.35C36.24 43.75 37.03 43.13 37.16 43.24C37.18 43.27 36.57 44.41 35.8 45.8ZM38.55 45.02C38.32 46.16 37.69 47.3 36.83 48.11C36.42 48.5 36.04 48.79 35.99 48.75C35.87 48.63 38.47 44.02 38.59 44.14C38.66 44.2 38.65 44.59 38.55 45.02Z" fill="#272F6A" fill-opacity="1.000000" fill-rule="nonzero"/>
	<path id="Vector" d="M29.19 43.29C28.02 43.96 27.82 44.13 27.78 44.46C27.72 44.95 27.96 45.24 28.41 45.24C28.6 45.24 29.36 44.89 30.1 44.47C31.36 43.76 31.44 43.69 31.44 43.27C31.44 42.27 30.95 42.27 29.19 43.29Z" fill="#272F6A" fill-opacity="1.000000" fill-rule="nonzero"/>
	<path id="Vector" d="M0.13 35.79C0.06 35.94 0 36.58 0 37.22C0 38.22 0.04 38.44 0.27 38.67C0.6 39 0.79 39.01 1.2 38.73C1.47 38.54 1.5 38.41 1.5 37.29C1.5 35.8 1.39 35.53 0.75 35.53C0.42 35.53 0.23 35.61 0.13 35.79Z" fill="#272F6A" fill-opacity="1.000000" fill-rule="nonzero"/>
</svg>
