<svg width="51.828369" height="55.945312" viewBox="0 0 51.8284 55.9453" fill="none" xmlns="http://www.w3.org/2000/svg" xmlns:xlink="http://www.w3.org/1999/xlink">
	<desc>
			Created with Pixso.
	</desc>
	<defs/>
	<path id="Vector" d="M1.2 0.07C0.82 0.21 0.41 0.59 0.21 0.98C0 1.41 0 1.69 0 19.93L0 38.46L0.25 38.69C0.56 38.99 1.09 39 1.43 38.72L1.69 38.52L1.72 20.16C1.75 5.69 1.78 1.79 1.89 1.72C1.95 1.68 8.72 1.64 16.93 1.64L31.82 1.64L31.82 6.03L31.82 10.42L32.09 10.87C32.23 11.12 32.55 11.42 32.79 11.57C33.21 11.81 33.27 11.81 37.55 11.81L41.89 11.81L41.89 14.44L41.89 17.08L42.2 17.4C42.6 17.79 43 17.8 43.36 17.44L43.64 17.18L43.64 13.86L43.64 10.55L38.36 5.28L33.08 0L17.22 0.01C8.5 0.01 1.29 0.04 1.2 0.07ZM37.38 10.14C35.55 10.16 33.96 10.14 33.82 10.11L33.57 10.06L33.57 6.52L33.57 3L37.13 6.56L40.68 10.11L37.38 10.14Z" fill="#272F6A" fill-opacity="1.000000" fill-rule="nonzero"/>
	<path id="Vector" d="M6.39 8.02C5.96 8.21 5.5 8.76 5.35 9.27C5.2 9.85 5.21 16.63 5.38 17.19C5.52 17.68 6.08 18.26 6.58 18.44C6.81 18.52 7.75 18.58 9.25 18.58C11.42 18.59 11.58 18.58 11.85 18.36C12.22 18.06 12.26 17.4 11.89 17.06C11.68 16.85 11.52 16.84 9.44 16.84C7.72 16.84 7.21 16.81 7.12 16.69C7.03 16.59 7 15.55 7.02 13.11L7.05 9.67L17.25 9.62L27.47 9.57L27.73 9.26C28.05 8.89 28.07 8.54 27.77 8.15L27.55 7.87L17.13 7.87C8.72 7.88 6.66 7.9 6.39 8.02Z" fill="#272F6A" fill-opacity="1.000000" fill-rule="nonzero"/>
	<path id="Vector" d="M32.92 14.32C32.73 14.51 32.7 14.68 32.7 15.69L32.7 16.84L23.58 16.84C15.06 16.84 14.44 16.85 14.22 17.02C14.1 17.13 13.96 17.37 13.93 17.57C13.87 17.87 13.92 17.98 14.19 18.26L14.52 18.59L24.1 18.59C30.98 18.59 33.75 18.56 33.95 18.47C34.39 18.26 34.47 17.88 34.43 16.15C34.39 14.77 34.36 14.53 34.19 14.33C33.9 14.03 33.22 14.02 32.92 14.32Z" fill="#272F6A" fill-opacity="1.000000" fill-rule="nonzero"/>
	<path id="Vector" d="M39.97 19.29C36.07 19.92 33.05 22.56 31.76 26.46C31.46 27.34 31.45 27.5 31.44 29.36C31.44 31.67 31.53 32.1 32.42 33.96C33.09 35.33 33.89 36.35 35.08 37.35L35.87 38L35.87 41.86C35.87 46.16 35.88 46.27 36.58 46.7C37.22 47.09 37.72 46.99 39.71 46.15C40.69 45.72 41.56 45.39 41.61 45.39C41.68 45.39 42.54 45.74 43.53 46.16C45.17 46.86 45.39 46.93 45.91 46.9C46.32 46.86 46.57 46.76 46.76 46.58C47.33 46.05 47.35 45.91 47.35 41.79L47.35 37.97L48.05 37.41C49.88 35.96 51.16 33.86 51.64 31.5C51.93 30.14 51.87 28.05 51.51 26.74C50.56 23.18 47.63 20.33 44.06 19.46C42.87 19.18 41.1 19.1 39.97 19.29ZM43.85 21.21C46.83 22.06 49.16 24.48 49.88 27.5C50.21 28.88 50.14 30.73 49.72 31.99C49.17 33.59 48.21 35.02 46.97 36.01C46.18 36.65 44.62 37.43 43.64 37.7C42.74 37.94 40.56 37.96 39.7 37.74C37.06 37.06 34.97 35.33 33.86 32.9C33.31 31.71 33.1 30.75 33.11 29.42C33.12 25.76 35.36 22.64 38.87 21.36C40.27 20.84 42.33 20.79 43.85 21.21ZM38.34 39.15C39.23 39.46 40.66 39.7 41.61 39.7C42.56 39.7 44 39.46 44.88 39.15C45.24 39.03 45.55 38.93 45.57 38.93C45.58 38.93 45.6 40.31 45.6 42C45.6 43.68 45.56 45.06 45.52 45.06C45.47 45.06 44.67 44.73 43.75 44.32C41.59 43.41 41.56 43.41 39.56 44.28C38.72 44.64 37.95 44.97 37.83 45C37.63 45.07 37.62 44.99 37.62 42.01C37.62 40.31 37.64 38.93 37.65 38.93C37.67 38.93 37.98 39.03 38.34 39.15Z" fill="#272F6A" fill-opacity="1.000000" fill-rule="nonzero"/>
	<path id="Vector" d="M40.09 22.59C35.25 23.67 33.06 29.21 35.83 33.37C36.47 34.35 37.34 35.09 38.43 35.65C39.6 36.23 40.65 36.45 42 36.38C44.84 36.24 47.18 34.49 48.21 31.74C48.57 30.75 48.67 28.83 48.4 27.78C48 26.16 47.43 25.5 46.7 25.81C46.36 25.95 46.09 26.45 46.18 26.76C46.23 26.87 46.38 27.3 46.52 27.72C47.55 30.58 45.86 33.72 42.86 34.5C39.95 35.28 36.93 33.26 36.42 30.17C35.77 26.33 39.89 23.04 43.45 24.56C43.82 24.72 44.32 24.88 44.58 24.9C44.97 24.94 45.06 24.91 45.27 24.66C45.88 23.87 45.31 23.24 43.53 22.69C42.66 22.43 41.02 22.38 40.09 22.59Z" fill="#272F6A" fill-opacity="1.000000" fill-rule="nonzero"/>
	<path id="Vector" d="M41.04 25.61C40.91 25.68 40.61 26.11 40.35 26.57L39.92 27.43L39.12 27.56C38.12 27.71 37.89 27.81 37.66 28.16C37.32 28.67 37.51 29.24 38.25 30.01L38.91 30.67L38.76 31.54C38.63 32.3 38.63 32.45 38.78 32.75C39.11 33.46 39.7 33.52 40.84 32.95L41.63 32.56L42.36 32.95C43.26 33.46 43.75 33.49 44.19 33.04C44.55 32.68 44.6 32.3 44.39 31.23L44.28 30.6L44.94 29.99C45.6 29.34 45.79 28.97 45.67 28.48C45.55 28 45.16 27.71 44.51 27.62C43.18 27.46 43.24 27.49 42.91 26.72C42.44 25.62 41.8 25.24 41.04 25.61ZM42.2 28.95C42.3 29.01 42.54 29.1 42.74 29.14L43.09 29.21L42.82 29.57C42.61 29.84 42.54 30.06 42.54 30.5L42.54 31.07L42.21 30.89C41.82 30.69 41.37 30.69 41.01 30.89C40.63 31.11 40.63 31.11 40.66 30.52C40.69 30.05 40.66 29.94 40.38 29.62L40.04 29.25L40.55 29.09C40.93 28.97 41.13 28.82 41.33 28.52L41.59 28.1L41.81 28.45C41.93 28.65 42.1 28.87 42.2 28.95Z" fill="#272F6A" fill-opacity="1.000000" fill-rule="nonzero"/>
	<path id="Vector" d="M5.72 23.86C5.41 24.01 5.21 24.5 5.31 24.87C5.46 25.51 4.83 25.48 16.89 25.48C27.87 25.48 27.95 25.48 28.19 25.26C28.52 24.95 28.52 24.28 28.2 23.99C27.98 23.8 27.62 23.78 16.96 23.76C9.39 23.75 5.88 23.78 5.72 23.86Z" fill="#272F6A" fill-opacity="1.000000" fill-rule="nonzero"/>
	<path id="Vector" d="M5.76 29.27C5.47 29.35 5.22 29.92 5.3 30.3C5.45 30.99 4.76 30.95 16.85 30.95C27.82 30.95 27.85 30.95 28.15 30.72C28.37 30.54 28.43 30.4 28.43 30.07C28.43 29.75 28.37 29.6 28.15 29.43C27.85 29.2 27.83 29.2 16.9 29.21C10.89 29.22 5.87 29.24 5.76 29.27Z" fill="#272F6A" fill-opacity="1.000000" fill-rule="nonzero"/>
	<path id="Vector" d="M5.61 34.83C5.12 35.17 5.2 36.05 5.75 36.3C5.95 36.38 9.32 36.42 18 36.42L29.97 36.42L30.24 36.14C30.41 35.98 30.51 35.75 30.51 35.54C30.51 35.33 30.41 35.1 30.24 34.94L29.97 34.67L17.91 34.67C7.44 34.67 5.81 34.69 5.61 34.83Z" fill="#272F6A" fill-opacity="1.000000" fill-rule="nonzero"/>
	<path id="Vector" d="M5.58 40.32C5.46 40.43 5.32 40.67 5.29 40.87C5.23 41.16 5.28 41.27 5.55 41.56L5.88 41.89L19.17 41.89C32.44 41.89 32.45 41.89 32.74 41.66C33.1 41.37 33.15 40.69 32.81 40.35C32.59 40.14 32.45 40.14 19.2 40.14C6.61 40.14 5.8 40.15 5.58 40.32Z" fill="#272F6A" fill-opacity="1.000000" fill-rule="nonzero"/>
	<path id="Vector" d="M0.28 40.91L0 41.13L0 47.86C0 54.34 0.01 54.6 0.21 55.01C0.33 55.24 0.59 55.55 0.78 55.69L1.14 55.94L21.82 55.94L42.49 55.94L42.85 55.69C43.05 55.55 43.3 55.24 43.42 55.01C43.62 54.61 43.64 54.35 43.64 51.3L43.64 48.02L43.35 47.8C42.86 47.42 42.31 47.52 42.05 48.02C41.92 48.26 41.89 48.91 41.89 51.27C41.89 53.86 41.86 54.23 41.71 54.29C41.49 54.38 2.14 54.38 1.92 54.29C1.77 54.22 1.75 53.56 1.75 47.84C1.75 43.4 1.71 41.38 1.62 41.2C1.39 40.68 0.75 40.54 0.28 40.91Z" fill="#272F6A" fill-opacity="1.000000" fill-rule="nonzero"/>
	<path id="Vector" d="M5.54 45.8C5.21 46.16 5.19 46.62 5.5 46.98L5.77 47.3L19.85 47.3L33.92 47.3L34.2 46.98C34.5 46.62 34.48 46.16 34.15 45.8C33.99 45.62 33.35 45.6 19.85 45.6C6.34 45.6 5.7 45.62 5.54 45.8Z" fill="#272F6A" fill-opacity="1.000000" fill-rule="nonzero"/>
</svg>
