<svg width="15.000000" height="15.000000" viewBox="0 0 15 15" fill="none" xmlns="http://www.w3.org/2000/svg" xmlns:xlink="http://www.w3.org/1999/xlink">
	<desc>
			Created with Pixso.
	</desc>
	<defs>
		<clipPath id="clip43_510">
			<rect id="clock 1 (traced)" rx="0.000000" width="14.000000" height="14.000000" transform="translate(0.500000 0.500000)" fill="white" fill-opacity="0"/>
		</clipPath>
	</defs>
	<rect id="clock 1 (traced)" rx="0.000000" width="14.000000" height="14.000000" transform="translate(0.500000 0.500000)" fill="#FFFFFF" fill-opacity="0"/>
	<g clip-path="url(#clip43_510)">
		<path id="Vector" d="M6.55 0.04C4.06 0.38 1.93 1.88 0.81 4.08C0.24 5.21 0 6.22 0 7.49C0 8.77 0.24 9.8 0.82 10.93C1.98 13.18 4.2 14.7 6.73 14.97C7.37 15.04 8.45 14.98 9.06 14.85C10.19 14.6 11.33 14.05 12.23 13.32C12.53 13.08 13.08 12.52 13.32 12.23C14.07 11.31 14.63 10.12 14.86 8.99C15 8.29 15.04 7.25 14.95 6.57C14.53 3.38 12.2 0.83 9.06 0.14C8.39 0 7.23 -0.05 6.55 0.04ZM8.26 1.56C10.21 1.82 11.93 3.04 12.83 4.81C13.69 6.49 13.69 8.5 12.84 10.17C12.46 10.9 11.95 11.55 11.36 12.04C10.24 12.98 8.92 13.47 7.5 13.47C5.68 13.47 3.96 12.64 2.83 11.22C0.92 8.83 1.11 5.44 3.28 3.28C4.21 2.34 5.42 1.74 6.7 1.56C7.13 1.51 7.82 1.51 8.26 1.56Z" fill="#212121" fill-opacity="1.000000" fill-rule="nonzero"/>
		<path id="Vector" d="M7.2 3.03C7.12 3.05 7.01 3.12 6.94 3.19C6.73 3.41 6.73 3.33 6.73 5.6C6.73 7.06 6.74 7.65 6.77 7.74C6.8 7.84 6.95 8.01 7.68 8.75C8.17 9.24 8.62 9.67 8.69 9.71C8.86 9.81 9.13 9.84 9.34 9.77C9.51 9.71 9.68 9.56 9.77 9.38C9.84 9.23 9.84 8.9 9.77 8.75C9.74 8.7 9.39 8.32 8.99 7.92L8.26 7.19L8.25 5.34C8.24 3.6 8.24 3.49 8.19 3.38C8.12 3.24 8 3.12 7.86 3.06C7.71 2.99 7.37 2.97 7.2 3.03Z" fill="#212121" fill-opacity="1.000000" fill-rule="nonzero"/>
	</g>
</svg>
