<svg width="15.000000" height="12.000000" viewBox="0 0 15 12" fill="none" xmlns="http://www.w3.org/2000/svg" xmlns:xlink="http://www.w3.org/1999/xlink">
	<desc>
			Created with Pixso.
	</desc>
	<defs>
		<clipPath id="clip43_528">
			<rect id="envelope (traced)" rx="0.000000" width="14.000000" height="11.000000" transform="translate(0.500000 0.500000)" fill="white" fill-opacity="0"/>
		</clipPath>
	</defs>
	<rect id="envelope (traced)" rx="0.000000" width="14.000000" height="11.000000" transform="translate(0.500000 0.500000)" fill="#FFFFFF" fill-opacity="0"/>
	<g clip-path="url(#clip43_528)">
		<path id="Vector" d="M1.89 -0.39C1.76 -0.37 1.5 -0.27 1.31 -0.18C1.01 -0.03 0.91 0.05 0.63 0.32C0.36 0.58 0.27 0.71 0.14 0.95C-0.14 1.52 -0.13 1.2 -0.13 5.93L-0.13 10.17L-0.05 10.42C0.19 11.16 0.69 11.74 1.37 12.05C1.9 12.29 1.55 12.28 7.5 12.28C13.44 12.28 13.09 12.29 13.62 12.05C14.3 11.74 14.8 11.16 15.04 10.42L15.12 10.17L15.12 5.93C15.12 1.19 15.13 1.52 14.85 0.95C14.72 0.71 14.63 0.58 14.36 0.32C14.08 0.04 13.98 -0.03 13.68 -0.18C13.08 -0.47 13.48 -0.45 7.48 -0.45C3.05 -0.45 2.09 -0.44 1.89 -0.39ZM12.71 0.79C13.35 0.9 13.68 1.2 13.86 1.83C13.92 2.04 13.92 2.36 13.92 5.89C13.92 9 13.91 9.77 13.87 9.95C13.73 10.57 13.39 10.91 12.77 11.04C12.41 11.11 2.58 11.11 2.22 11.04C1.6 10.91 1.26 10.57 1.12 9.95C1.08 9.77 1.07 9 1.07 5.89C1.07 2.36 1.07 2.04 1.13 1.83C1.31 1.21 1.64 0.9 2.27 0.79C2.67 0.72 12.3 0.72 12.71 0.79Z" fill="#212121" fill-opacity="1.000000" fill-rule="nonzero"/>
		<path id="Vector" d="M2.94 2.69C2.8 2.77 2.66 2.91 2.62 3.04C2.57 3.2 2.61 3.46 2.72 3.58C2.87 3.76 6.78 6.54 7 6.63C7.26 6.73 7.73 6.73 7.99 6.63C8.18 6.56 11.96 3.89 12.21 3.65C12.5 3.37 12.43 2.88 12.07 2.7C12.01 2.67 11.87 2.65 11.77 2.65C11.54 2.65 11.81 2.47 9.23 4.31C7.32 5.69 7.52 5.56 7.4 5.48C7.34 5.44 6.6 4.92 5.76 4.31C3.17 2.46 3.46 2.65 3.22 2.65C3.1 2.65 2.98 2.67 2.94 2.69Z" fill="#212121" fill-opacity="1.000000" fill-rule="nonzero"/>
	</g>
</svg>
