<svg width="12.853149" height="15.994873" viewBox="0 0 12.8531 15.9949" fill="none" xmlns="http://www.w3.org/2000/svg" xmlns:xlink="http://www.w3.org/1999/xlink">
	<desc>
			Created with Pixso.
	</desc>
	<defs/>
	<path id="Vector" d="M5.59 0.02C5.28 0.07 4.7 0.2 4.38 0.31C2.09 1.08 0.4 3.11 0.07 5.47C-0.08 6.53 -0.01 7.41 0.31 8.38C0.88 10.1 2.24 12.06 4.28 14.1C5.1 14.91 6.32 15.99 6.42 15.99C6.52 15.99 7.72 14.93 8.52 14.14C10.89 11.79 12.34 9.54 12.73 7.65C12.97 6.51 12.84 5.16 12.4 4.05C11.53 1.85 9.55 0.31 7.2 0.02C6.89 -0.02 5.91 -0.01 5.59 0.02ZM7.28 1.33C8.88 1.61 10.28 2.65 11.01 4.1C11.56 5.18 11.71 6.47 11.42 7.6C11.01 9.22 9.62 11.26 7.49 13.33C7.21 13.62 6.84 13.96 6.69 14.1L6.42 14.34L6.15 14.1C5.68 13.68 4.39 12.37 4 11.91C2.57 10.24 1.74 8.86 1.42 7.6C1.08 6.27 1.36 4.73 2.15 3.56C2.9 2.43 4.1 1.62 5.39 1.37C5.86 1.28 5.83 1.28 6.4 1.27C6.79 1.27 7 1.29 7.28 1.33Z" fill="#212121" fill-opacity="1.000000" fill-rule="nonzero"/>
	<path id="Vector" d="M5.97 3.45C5.93 3.45 5.81 3.48 5.7 3.51C4.78 3.72 3.97 4.44 3.63 5.34C3.43 5.87 3.39 6.57 3.53 7.12C4.11 9.38 6.89 10.15 8.54 8.5C9.03 8.01 9.32 7.38 9.39 6.68C9.52 5.21 8.63 3.92 7.19 3.51C7.03 3.47 6.85 3.45 6.5 3.44C6.24 3.44 6 3.44 5.97 3.45ZM6.86 4.76C7.45 4.93 7.89 5.37 8.06 5.96C8.12 6.16 8.13 6.57 8.08 6.79C7.94 7.35 7.47 7.85 6.93 8.02C6.64 8.11 6.2 8.11 5.92 8.02C5.37 7.85 4.9 7.35 4.77 6.79C4.72 6.57 4.72 6.16 4.78 5.96C4.96 5.38 5.38 4.96 5.95 4.77C6.18 4.7 6.63 4.69 6.86 4.76Z" fill="#212121" fill-opacity="1.000000" fill-rule="nonzero"/>
</svg>
