<svg width="19.001297" height="18.993652" viewBox="0 0 19.0013 18.9937" fill="none" xmlns="http://www.w3.org/2000/svg" xmlns:xlink="http://www.w3.org/1999/xlink">
	<desc>
			Created with Pixso.
	</desc>
	<defs/>
	<path id="Vector" d="M6.71 0.02C6.66 0.02 6.49 0.05 6.34 0.07C4.31 0.36 2.37 1.62 1.21 3.39C0.39 4.65 0 5.97 0 7.5C0 8.57 0.15 9.4 0.53 10.34C2.02 14.02 6.1 15.91 9.89 14.67C10.58 14.44 11.52 13.95 12.04 13.54L12.22 13.4L14.99 16.15C17.21 18.37 17.78 18.92 17.89 18.96C17.97 18.98 18.15 18.99 18.28 18.99C18.56 18.97 18.78 18.83 18.91 18.59C19.01 18.39 19.02 18.06 18.94 17.85C18.9 17.75 18.05 16.88 16.14 14.97L13.4 12.22L13.54 12.04C13.75 11.78 14.06 11.27 14.26 10.87C14.81 9.79 15.04 8.77 15.04 7.49C15.04 6.48 14.91 5.75 14.56 4.84C13.59 2.28 11.3 0.45 8.58 0.05C8.2 0 6.99 -0.02 6.71 0.02ZM8.5 1.68C11.11 2.15 13.09 4.24 13.4 6.86C13.45 7.35 13.42 8.17 13.32 8.65C12.89 10.74 11.37 12.47 9.36 13.13C8.66 13.35 8.29 13.41 7.47 13.41C6.69 13.4 6.3 13.34 5.65 13.13C3.9 12.54 2.49 11.13 1.91 9.38C1.42 7.89 1.51 6.38 2.19 4.97C2.49 4.34 2.81 3.9 3.35 3.35C4.34 2.35 5.48 1.8 6.9 1.63C7.27 1.58 8.1 1.61 8.5 1.68Z" fill="#212121" fill-opacity="1.000000" fill-rule="nonzero"/>
</svg>
