<svg width="45.900146" height="56.001587" viewBox="0 0 45.9001 56.0016" fill="none" xmlns="http://www.w3.org/2000/svg" xmlns:xlink="http://www.w3.org/1999/xlink">
	<desc>
			Created with Pixso.
	</desc>
	<defs/>
	<path id="Vector" d="M0.69 0.19C0.53 0.29 0.32 0.57 0.2 0.83C0.01 1.25 0 1.53 0 8.19L0 15.11L0.31 15.44C0.57 15.71 0.68 15.76 0.96 15.7C1.69 15.56 1.65 15.93 1.65 8.41L1.65 1.64L15.16 1.64L28.67 1.64L28.67 5.49C28.67 9.8 28.68 9.86 29.38 10.35C29.74 10.6 29.76 10.6 33.44 10.6L37.15 10.6L37.18 12.86C37.21 15.07 37.21 15.11 37.46 15.32C37.79 15.6 38.31 15.59 38.59 15.27C38.8 15.02 38.81 14.95 38.81 12.28L38.81 9.54L38.51 9.12C38.16 8.61 30.39 0.43 30.01 0.17C29.79 0.01 28.52 0 15.37 0C1.93 0.01 0.96 0.02 0.69 0.19ZM33.22 5.96L36.07 8.96L33.19 8.96L30.33 8.96L30.33 5.96C30.33 4.3 30.34 2.95 30.36 2.95C30.37 2.95 31.66 4.3 33.22 5.96Z" fill="#272F6A" fill-opacity="1.000000" fill-rule="nonzero"/>
	<path id="Vector" d="M4.44 8.56C3.75 9.04 3.71 9.25 3.74 12.21C3.77 15.12 3.77 15.12 4.49 15.68C4.76 15.9 4.91 15.91 7.39 15.91C10.27 15.91 10.35 15.9 10.76 15.17C10.95 14.85 10.97 14.6 10.97 12.08C10.97 8.12 11.14 8.31 7.37 8.31C4.86 8.31 4.78 8.32 4.44 8.56ZM9.31 12.08L9.31 14.21L7.34 14.21L5.38 14.21L5.38 12.08L5.38 9.95L7.34 9.95L9.31 9.95L9.31 12.08Z" fill="#272F6A" fill-opacity="1.000000" fill-rule="nonzero"/>
	<path id="Vector" d="M12.31 9.62C11.99 9.96 12.03 10.64 12.38 10.92C12.64 11.15 12.74 11.15 19.11 11.15L25.57 11.15L25.82 10.88C26.16 10.53 26.17 9.97 25.84 9.64L25.6 9.4L19.06 9.4C12.66 9.4 12.52 9.4 12.31 9.62Z" fill="#272F6A" fill-opacity="1.000000" fill-rule="nonzero"/>
	<path id="Vector" d="M41.72 13.14C41.47 13.27 41.15 13.55 41.02 13.77C40.87 13.98 37.29 21.62 33.05 30.73L25.34 47.29L25.41 49.21C25.49 51.42 25.56 51.77 26.02 52.07C26.69 52.5 26.86 52.43 29.29 50.59L30.17 49.92L32.42 45.17C33.89 42.05 34.67 40.29 34.67 40.07C34.67 39.57 34.36 39.22 33.92 39.22C33.72 39.22 33.47 39.29 33.37 39.37C33.26 39.46 32.63 40.73 31.95 42.18L30.72 44.83L29.8 44.35C29.29 44.07 28.88 43.82 28.88 43.79C28.88 43.7 39.21 21.52 39.28 21.44C39.33 21.4 41.19 22.31 41.19 22.37C41.19 22.38 39.7 25.58 37.87 29.48C35.52 34.51 34.55 36.69 34.55 36.95C34.55 37.18 34.63 37.4 34.77 37.54C35.05 37.84 35.65 37.85 35.9 37.57C36.01 37.45 38.3 32.62 40.99 26.85C45.75 16.63 45.88 16.32 45.89 15.68C45.9 15.12 45.85 14.94 45.59 14.48C45.32 14.02 45.15 13.87 44.32 13.42C43.18 12.8 42.51 12.73 41.72 13.14ZM43.51 14.98C43.88 15.17 44.21 15.4 44.25 15.49C44.29 15.61 44.09 16.16 43.74 16.92L43.17 18.15L42.23 17.66C41.72 17.39 41.3 17.15 41.3 17.11C41.3 17.08 41.56 16.51 41.87 15.85C42.3 14.92 42.49 14.65 42.64 14.65C42.76 14.65 43.15 14.8 43.51 14.98ZM42.17 20.25L41.92 20.78L40.99 20.28C40.47 20.01 40.06 19.77 40.06 19.74C40.06 19.72 40.16 19.47 40.28 19.2L40.5 18.72L41.46 19.22L42.42 19.73L42.17 20.25ZM29.1 45.98L30 46.41L29.75 46.93L29.5 47.45L28.6 47C28.09 46.76 27.66 46.55 27.64 46.51C27.56 46.45 28.05 45.47 28.13 45.52C28.18 45.54 28.62 45.75 29.1 45.98ZM27.79 48.58C28.16 48.78 28.46 48.96 28.46 49C28.45 49.06 27.19 49.99 27.16 49.95C27.11 49.88 27 48.23 27.05 48.23C27.09 48.23 27.42 48.38 27.79 48.58Z" fill="#272F6A" fill-opacity="1.000000" fill-rule="nonzero"/>
	<path id="Vector" d="M12.68 13.09C12.1 13.24 11.89 14.09 12.31 14.54C12.52 14.76 12.65 14.76 19.09 14.76C25.53 14.76 25.67 14.76 25.87 14.54C26.09 14.31 26.14 13.79 25.98 13.45C25.77 13.03 25.42 13.01 19.05 13.02C15.66 13.03 12.79 13.07 12.68 13.09Z" fill="#272F6A" fill-opacity="1.000000" fill-rule="nonzero"/>
	<path id="Vector" d="M0.3 17.7L0.05 17.91L0.02 36.32C0 54.49 0 54.73 0.2 55.16C0.62 56.07 -1.28 56 19.49 56L37.95 56L38.23 55.77C38.83 55.26 38.81 55.66 38.81 46.55L38.81 38.18L38.54 37.96C38.08 37.58 37.56 37.67 37.31 38.18C37.18 38.44 37.16 39.67 37.16 46.42L37.16 54.35L19.4 54.35L1.65 54.35L1.65 36.14C1.65 18.07 1.65 17.93 1.44 17.71C1.18 17.43 0.62 17.43 0.3 17.7Z" fill="#272F6A" fill-opacity="1.000000" fill-rule="nonzero"/>
	<path id="Vector" d="M4.46 18.39C3.76 18.88 3.72 19.1 3.72 21.92C3.72 24.86 3.79 25.18 4.54 25.58C4.92 25.79 5.14 25.81 7.37 25.81C10.07 25.81 10.28 25.75 10.73 25.05C10.96 24.69 10.97 24.6 10.97 21.9L10.97 19.12L10.56 18.67L10.15 18.21L7.48 18.17C4.83 18.14 4.8 18.14 4.46 18.39ZM9.31 21.98L9.31 24.06L7.34 24.06L5.38 24.06L5.38 21.98L5.38 19.9L7.34 19.9L9.31 19.9L9.31 21.98Z" fill="#272F6A" fill-opacity="1.000000" fill-rule="nonzero"/>
	<path id="Vector" d="M12.38 19.47C12.02 19.77 11.99 20.44 12.33 20.78C12.56 21 12.64 21 21.18 21L29.82 21L30.09 20.71C30.3 20.48 30.34 20.36 30.28 20.03C30.16 19.19 30.81 19.25 21.22 19.25C12.71 19.25 12.66 19.25 12.38 19.47Z" fill="#272F6A" fill-opacity="1.000000" fill-rule="nonzero"/>
	<path id="Vector" d="M12.31 23.18C12.02 23.49 12.03 24.17 12.32 24.45C12.53 24.65 12.85 24.66 20.95 24.69C26.54 24.71 29.47 24.69 29.71 24.62C30.3 24.43 30.5 23.77 30.11 23.25L29.9 22.96L21.21 22.96C12.65 22.96 12.52 22.96 12.31 23.18Z" fill="#272F6A" fill-opacity="1.000000" fill-rule="nonzero"/>
	<path id="Vector" d="M4.55 28.19C4.32 28.32 4.09 28.57 3.95 28.88C3.72 29.35 3.71 29.44 3.74 31.99C3.77 34.56 3.77 34.62 4.02 34.98C4.45 35.61 4.68 35.65 7.4 35.65C10.03 35.65 10.15 35.63 10.66 35.05L10.92 34.75L10.95 31.94C10.98 29.17 10.98 29.13 10.74 28.76C10.28 28.04 10.08 28 7.34 28C5.19 28 4.87 28.02 4.55 28.19ZM9.31 31.82L9.31 33.9L7.34 33.9L5.38 33.9L5.38 31.82L5.38 29.75L7.34 29.75L9.31 29.75L9.31 31.82Z" fill="#272F6A" fill-opacity="1.000000" fill-rule="nonzero"/>
	<path id="Vector" d="M12.62 29.17C12.09 29.38 11.91 30.19 12.31 30.62C12.52 30.84 12.65 30.84 20.28 30.84C27.91 30.84 28.05 30.84 28.25 30.62C28.57 30.29 28.57 29.71 28.24 29.36C28.05 29.14 27.89 29.14 20.41 29.12C16.22 29.11 12.71 29.13 12.62 29.17Z" fill="#272F6A" fill-opacity="1.000000" fill-rule="nonzero"/>
	<path id="Vector" d="M12.31 33.03C11.99 33.37 12.03 34.04 12.39 34.33C12.66 34.56 12.68 34.56 20.92 34.54C30.09 34.5 29.45 34.56 29.57 33.77C29.61 33.44 29.58 33.32 29.36 33.09L29.09 32.81L20.8 32.81C12.66 32.81 12.52 32.81 12.31 33.03Z" fill="#272F6A" fill-opacity="1.000000" fill-rule="nonzero"/>
	<path id="Vector" d="M4.7 37.99C4.32 38.18 3.98 38.56 3.84 38.97C3.76 39.15 3.72 40.27 3.72 41.75C3.72 44.53 3.77 44.77 4.44 45.24C4.78 45.48 4.86 45.5 7.39 45.5C10.25 45.5 10.33 45.47 10.77 44.77C10.95 44.49 10.97 44.22 10.97 41.72C10.97 39.21 10.95 38.95 10.76 38.64C10.35 37.92 10.26 37.89 7.5 37.87C5.57 37.85 4.94 37.87 4.7 37.99ZM9.31 41.72L9.31 43.85L7.34 43.85L5.38 43.85L5.38 41.72L5.38 39.59L7.34 39.59L9.31 39.59L9.31 41.72Z" fill="#272F6A" fill-opacity="1.000000" fill-rule="nonzero"/>
	<path id="Vector" d="M12.33 39.22C12.02 39.45 12.01 40.23 12.32 40.53C12.53 40.73 12.8 40.74 19.4 40.74C26.01 40.74 26.28 40.73 26.48 40.53C26.77 40.25 26.78 39.57 26.5 39.26C26.29 39.04 26.15 39.04 19.42 39.04C13.39 39.04 12.54 39.06 12.33 39.22Z" fill="#272F6A" fill-opacity="1.000000" fill-rule="nonzero"/>
	<path id="Vector" d="M12.38 42.88C12.03 43.17 11.99 43.84 12.31 44.18C12.52 44.4 12.66 44.4 18.19 44.4C23.76 44.4 23.88 44.4 24.09 44.18C24.44 43.84 24.4 43.18 24.05 42.88C23.78 42.65 23.68 42.65 18.21 42.65C12.75 42.65 12.64 42.65 12.38 42.88Z" fill="#272F6A" fill-opacity="1.000000" fill-rule="nonzero"/>
</svg>
