<svg width="9.613770" height="5.789795" viewBox="0 0 9.61377 5.78979" fill="none" xmlns="http://www.w3.org/2000/svg" xmlns:xlink="http://www.w3.org/1999/xlink">
	<desc>
			Created with Pixso.
	</desc>
	<defs/>
	<path id="Vector" d="M0.7 0.03C0.26 0.15 0 0.5 0 0.96C0 1.1 0.03 1.28 0.08 1.38C0.14 1.5 0.85 2.24 2.25 3.63C4.31 5.69 4.33 5.71 4.56 5.76C4.74 5.79 4.86 5.79 5.04 5.76C5.27 5.71 5.3 5.69 7.38 3.62C9.68 1.31 9.64 1.37 9.6 0.87C9.58 0.52 9.41 0.26 9.1 0.11C8.84 -0.02 8.44 -0.04 8.21 0.08C8.13 0.12 7.33 0.89 6.43 1.78L4.8 3.4L3.18 1.78C2.28 0.89 1.49 0.12 1.41 0.09C1.21 -0.01 0.94 -0.03 0.7 0.03Z" fill="#212121" fill-opacity="1.000000" fill-rule="nonzero"/>
</svg>
