<svg width="16.516357" height="12.750000" viewBox="0 0 16.5164 12.75" fill="none" xmlns="http://www.w3.org/2000/svg" xmlns:xlink="http://www.w3.org/1999/xlink">
	<defs/>
	<path id="Vector" d="M10.07 0.09C10.01 0.15 9.98 0.24 9.98 0.38L9.98 0.58L12.69 3.29L15.39 6L7.79 6C0.24 6 0.18 6 0.09 6.09C-0.04 6.22 -0.04 6.52 0.09 6.65C0.18 6.75 0.24 6.75 7.79 6.75L15.39 6.75L12.69 9.45L9.98 12.16L9.98 12.36C9.98 12.62 10.1 12.75 10.36 12.75L10.57 12.75L13.42 9.9C14.99 8.33 16.32 6.96 16.39 6.85C16.55 6.57 16.55 6.17 16.39 5.89C16.32 5.78 14.99 4.41 13.42 2.84L10.57 0L10.36 0C10.23 0 10.14 0.02 10.07 0.09Z" fill="#272F6A" fill-opacity="1.000000" fill-rule="nonzero"/>
</svg>
